<svg width="1489" height="217" viewBox="0 0 1489 217" fill="none" xmlns="http://www.w3.org/2000/svg">
<path d="M0.0933228 192.981L116.889 75.7498C120.084 72.8445 123.571 71.3918 127.348 71.3918C130.834 71.3918 134.466 72.8445 138.243 75.7498C141.439 78.5099 143.037 81.9963 143.037 86.2091C143.037 90.4219 141.366 93.9809 138.025 96.8863L21.4477 214.335L0.0933228 192.981ZM66.9891 83.1585C62.4858 83.1585 58.7089 81.6332 55.6582 78.5826C52.7529 75.5319 51.3002 71.755 51.3002 67.2517C51.3002 63.0389 52.7529 59.5525 55.6582 56.7924C58.5636 53.887 61.9048 52.4344 65.6817 52.4344C69.8945 52.4344 73.5262 54.1049 76.5768 57.4461C79.918 60.4967 81.5885 63.9105 81.5885 67.6875C81.5885 72.0455 79.9906 75.6772 76.7947 78.5826C74.1799 81.6332 70.9114 83.1585 66.9891 83.1585ZM144.562 161.385C140.495 161.385 137.081 160.005 134.321 157.245C131.415 154.34 129.963 150.853 129.963 146.786C129.963 142.428 131.343 138.796 134.103 135.891C136.718 132.84 140.422 131.315 145.216 131.315C149.138 131.315 152.552 132.767 155.457 135.673C158.508 138.433 160.033 141.992 160.033 146.35C160.033 150.127 158.58 153.613 155.675 156.809C152.624 159.86 148.92 161.385 144.562 161.385ZM111.223 37.8349C107.301 37.8349 103.887 36.3096 100.982 33.259C98.0764 30.4989 96.6238 26.8672 96.6238 22.3639C96.6238 18.4417 98.2217 14.9553 101.418 11.9047C104.904 8.70876 108.463 7.11081 112.095 7.11081C116.162 7.11081 119.503 8.56349 122.118 11.4688C125.169 14.5195 126.694 18.0059 126.694 21.9281C126.694 26.2862 125.169 30.1357 122.118 33.4769C119.649 36.3823 116.017 37.8349 111.223 37.8349ZM190.104 116.062C185.891 116.062 182.259 114.536 179.208 111.486C176.594 108.435 175.286 104.803 175.286 100.591C175.286 96.3779 176.739 92.8188 179.644 89.9134C182.985 86.8628 186.472 85.3375 190.104 85.3375C194.026 85.3375 197.44 86.9354 200.345 90.1313C203.686 93.182 205.357 96.6684 205.357 100.591C205.357 105.094 203.759 108.653 200.563 111.268C197.367 114.464 193.881 116.062 190.104 116.062ZM173.979 54.1776C170.057 54.1776 166.425 52.6523 163.084 49.6016C160.033 46.551 158.508 43.0646 158.508 39.1424C158.508 35.5107 160.033 31.879 163.084 28.2473C165.699 25.1966 169.04 23.6713 173.107 23.6713C176.739 23.6713 180.516 25.1966 184.438 28.2473C187.489 31.0074 189.014 34.4938 189.014 38.7065C189.014 42.774 187.416 46.4057 184.22 49.6016C181.17 52.6523 177.756 54.1776 173.979 54.1776Z" fill="#8972E6" style="fill:#8972E6;fill:color(display-p3 0.5373 0.4471 0.9020);fill-opacity:1;"/>
<path d="M330.851 93.182C330.851 85.9186 328.236 79.7447 323.007 74.6603C317.922 69.4307 311.821 66.8159 304.703 66.8159C297.585 66.8159 291.411 69.4307 286.181 74.6603C281.097 79.7447 278.555 85.9186 278.555 93.182V164H255.021V45.6794H278.555V50.909C286.399 45.9699 295.115 43.5004 304.703 43.5004C312.257 43.5004 319.302 45.0257 325.839 48.0763C332.376 51.1269 337.969 55.4123 342.618 60.9325C347.266 55.5576 352.859 51.3448 359.396 48.2942C366.078 45.0983 373.197 43.5004 380.75 43.5004C389.757 43.5004 398.037 45.752 405.591 50.2553C413.145 54.6134 419.101 60.642 423.459 68.3412C427.963 75.8951 430.214 84.1754 430.214 93.182V164H406.681V93.182C406.681 85.9186 404.139 79.7447 399.054 74.6603C393.97 69.4307 387.869 66.8159 380.75 66.8159C373.487 66.8159 367.241 69.4307 362.011 74.6603C356.927 79.7447 354.384 85.9186 354.384 93.182V164H330.851V93.182ZM505.011 166.397C498.038 166.397 490.121 164.799 481.259 161.603C473.27 158.407 466.66 153.977 461.43 148.311C455.329 142.065 450.898 135.455 448.138 128.482C444.942 119.621 443.344 111.704 443.344 104.731C443.344 97.7579 444.942 89.9134 448.138 81.1974C451.334 73.2076 455.765 66.598 461.43 61.3683C467.532 55.4123 474.141 50.909 481.259 47.8584C489.83 44.8078 497.747 43.2825 505.011 43.2825C512.419 43.2825 520.264 44.8078 528.544 47.8584C533.919 50.328 538.713 53.1607 542.925 56.3566V45.6794H566.459V164H542.925V153.105C538.422 156.737 533.628 159.569 528.544 161.603C519.828 164.799 511.983 166.397 505.011 166.397ZM505.011 142.864C509.514 142.864 514.38 141.847 519.61 139.813C524.404 137.924 528.399 135.164 531.595 131.533C535.226 128.337 537.986 124.342 539.875 119.548C541.909 115.045 542.925 110.106 542.925 104.731C542.925 100.227 541.909 95.361 539.875 90.1313C537.986 85.3375 535.226 81.3426 531.595 78.1467C528.399 74.5151 524.404 71.755 519.61 69.8665C515.107 67.8327 510.24 66.8159 505.011 66.8159C500.362 66.8159 495.423 67.8327 490.193 69.8665C485.399 71.755 481.405 74.5151 478.209 78.1467C474.577 81.3426 471.817 85.3375 469.928 90.1313C467.895 95.0704 466.878 99.9369 466.878 104.731C466.878 109.379 467.895 114.318 469.928 119.548C471.817 124.342 474.577 128.337 478.209 131.533C481.405 135.164 485.399 137.924 490.193 139.813C495.132 141.847 500.071 142.864 505.011 142.864ZM584.763 183.175L602.195 169.448C608.296 178.599 614.325 184.773 620.281 187.969C626.382 191.31 633.573 192.981 641.853 192.981C648.39 192.981 654.491 191.02 660.157 187.098C665.822 183.321 670.325 178.672 673.666 173.152C677.153 167.777 678.969 162.765 679.114 158.117V152.887C667.638 161.894 655 166.397 641.199 166.397C631.176 166.397 621.37 163.855 611.782 158.77C602.34 153.541 594.568 146.277 588.467 136.98C582.511 127.538 579.533 116.788 579.533 104.731C579.533 94.7073 582.075 84.9743 587.16 75.5319C592.389 65.9443 599.653 58.1724 608.95 52.2165C618.392 46.1152 629.142 43.0646 641.199 43.0646C648.317 43.0646 655.072 44.2994 661.464 46.7689C668.001 49.0932 673.884 52.4344 679.114 56.7924V45.6794H702.647V150.926C702.647 161.821 699.96 172.28 694.585 182.304C689.21 192.472 681.801 200.68 672.359 206.927C663.062 213.173 652.675 216.296 641.199 216.296C632.193 216.296 622.895 214.045 613.308 209.541C603.865 205.038 596.166 198.719 590.21 190.584L584.763 183.175ZM641.199 142.864C648.027 142.864 654.346 141.12 660.157 137.634C665.967 134.147 670.543 129.499 673.884 123.688C677.371 117.877 679.114 111.558 679.114 104.731C679.114 98.339 677.516 92.2377 674.32 86.427C671.124 80.6163 666.621 75.8951 660.81 72.2634C655.145 68.6317 648.608 66.8159 641.199 66.8159C634.953 66.8159 628.851 68.3412 622.895 71.3918C617.085 74.4424 612.291 78.8731 608.514 84.6838C604.882 90.4945 603.066 97.1768 603.066 104.731C603.066 111.994 604.882 118.531 608.514 124.342C612.146 130.153 616.867 134.729 622.677 138.07C628.633 141.266 634.807 142.864 641.199 142.864ZM747.61 45.6794V164H724.077V45.6794H747.61ZM735.843 28.4652C731.921 28.4652 728.58 27.0851 725.82 24.325C723.06 21.565 721.68 18.2238 721.68 14.3016C721.68 10.3793 723.06 7.03817 725.82 4.27809C728.58 1.518 731.921 0.137958 735.843 0.137958C739.766 0.137958 743.107 1.518 745.867 4.27809C748.627 7.03817 750.007 10.3793 750.007 14.3016C750.007 18.2238 748.627 21.565 745.867 24.325C743.107 27.0851 739.766 28.4652 735.843 28.4652ZM832.903 165.961C829.707 166.252 827.238 166.397 825.495 166.397C816.343 166.397 807.481 164.436 798.911 160.514C793.681 158.044 788.814 154.921 784.311 151.144C779.808 147.222 776.031 142.864 772.98 138.07C769.784 133.276 767.315 127.974 765.572 122.163C763.974 116.207 763.175 110.178 763.175 104.077C763.175 98.8474 763.974 93.4725 765.572 87.9523C767.315 82.2869 769.639 76.9846 772.544 72.0455C778.646 62.3126 787.144 54.7586 798.039 49.3837C806.029 45.3162 815.035 43.2825 825.059 43.2825C828.255 43.2825 830.652 43.3551 832.25 43.5004C837.915 44.0815 843.435 45.6068 848.81 48.0763C854.185 50.4006 859.124 53.3786 863.627 57.0103L873.215 64.6368L857.744 82.2869L848.81 75.314C845.033 72.5539 841.401 70.5202 837.915 69.2128C834.574 67.7601 830.797 67.0338 826.584 67.0338C823.533 67.0338 820.483 67.5422 817.432 68.5591C811.331 69.8665 805.956 72.6266 801.307 76.8393C795.933 80.9068 792.156 86.4996 789.977 93.6178C788.814 97.54 788.233 101.244 788.233 104.731C788.233 107.346 788.597 110.469 789.323 114.101C791.211 120.928 794.698 126.739 799.782 131.533C803.995 135.6 809.225 138.723 815.471 140.902C818.376 141.919 821.5 142.428 824.841 142.428C829.925 142.428 834.429 141.774 838.351 140.467C842.273 139.014 845.977 136.762 849.464 133.712L858.616 126.739L872.997 143.953L864.499 151.798C855.202 159.642 844.67 164.363 832.903 165.961ZM928.109 167.269C920.265 167.269 912.783 165.743 905.665 162.693C898.547 159.497 892.809 155.066 888.451 149.401C884.093 143.735 881.914 137.271 881.914 130.007V124.56H905.883V130.007C905.883 133.639 908.135 136.762 912.638 139.377C917.287 141.992 922.444 143.299 928.109 143.299C934.065 143.299 939.222 141.992 943.58 139.377C948.083 136.762 950.335 133.639 950.335 130.007C950.335 126.521 948.156 123.906 943.798 122.163C939.44 120.42 933.775 118.676 926.802 116.933C914.745 113.302 904.794 108.871 896.949 103.641C889.25 98.2663 885.4 90.3492 885.4 79.89C885.4 72.7718 887.216 66.3801 890.848 60.7146C894.625 55.0492 899.782 50.6185 906.319 47.4226C912.856 44.2267 920.119 42.6288 928.109 42.6288C935.518 42.6288 942.491 44.372 949.028 47.8584C955.71 51.3448 961.012 55.9934 964.935 61.8041C969.002 67.4696 971.036 73.4982 971.036 79.89V85.1196H947.502L947.067 79.89C947.067 76.5488 945.105 73.4982 941.183 70.7381C937.261 67.8327 932.903 66.3801 928.109 66.3801C922.444 66.3801 917.868 67.6148 914.381 70.0844C911.04 72.5539 909.37 75.8225 909.37 79.89C909.37 84.1027 911.767 87.226 916.56 89.2597C921.499 91.2935 927.746 93.1093 935.3 94.7073L940.094 95.7968C951.134 98.4116 959.56 102.697 965.37 108.653C971.326 114.464 974.304 121.582 974.304 130.007C974.304 137.271 972.125 143.735 967.767 149.401C963.409 155.066 957.671 159.497 950.553 162.693C943.435 165.743 935.954 167.269 928.109 167.269ZM1049.98 166.397C1041.12 166.397 1033.2 164.799 1026.23 161.603C1020.27 158.988 1015.48 156.228 1011.84 153.323V213.899H988.311V45.6794H1011.84V56.3566C1016.78 52.4344 1021.58 49.6016 1026.23 47.8584C1034.51 44.6625 1042.42 43.0646 1049.98 43.0646C1058.69 43.0646 1066.54 44.6625 1073.51 47.8584C1081.79 51.6354 1088.4 56.066 1093.34 61.1504C1099.44 67.5422 1103.94 74.2972 1106.85 81.4153C1109.9 89.6955 1111.43 97.4674 1111.43 104.731C1111.43 113.302 1109.9 121.146 1106.85 128.264C1103.22 136.399 1098.71 143.081 1093.34 148.311C1087.24 154.412 1080.63 158.843 1073.51 161.603C1065.23 164.799 1057.39 166.397 1049.98 166.397ZM1049.98 142.864C1054.92 142.864 1059.71 141.919 1064.36 140.031C1069.3 137.707 1073.37 134.874 1076.56 131.533C1079.76 128.773 1082.59 124.705 1085.06 119.33C1086.95 114.682 1087.89 109.815 1087.89 104.731C1087.89 99.7916 1086.95 94.9252 1085.06 90.1313C1082.74 85.047 1079.9 81.0521 1076.56 78.1467C1073.8 74.9509 1069.73 72.1181 1064.36 69.6486C1059.71 67.7601 1054.92 66.8159 1049.98 66.8159C1044.89 66.8159 1040.03 67.7601 1035.38 69.6486C1030 72.1181 1025.94 74.9509 1023.18 78.1467C1019.69 81.3426 1016.86 85.3375 1014.68 90.1313C1012.79 94.9252 1011.84 99.7916 1011.84 104.731C1011.84 109.815 1012.79 114.682 1014.68 119.33C1017 124.269 1019.83 128.337 1023.18 131.533C1026.37 134.874 1030.44 137.707 1035.38 140.031C1040.03 141.919 1044.89 142.864 1049.98 142.864ZM1181.7 166.397C1174.72 166.397 1166.81 164.799 1157.95 161.603C1149.96 158.407 1143.35 153.977 1138.12 148.311C1132.02 142.065 1127.59 135.455 1124.83 128.482C1121.63 119.621 1120.03 111.704 1120.03 104.731C1120.03 97.7579 1121.63 89.9134 1124.83 81.1974C1128.02 73.2076 1132.45 66.598 1138.12 61.3683C1144.22 55.4123 1150.83 50.909 1157.95 47.8584C1166.52 44.8078 1174.43 43.2825 1181.7 43.2825C1189.11 43.2825 1196.95 44.8078 1205.23 47.8584C1210.61 50.328 1215.4 53.1607 1219.61 56.3566V45.6794H1243.15V164H1219.61V153.105C1215.11 156.737 1210.32 159.569 1205.23 161.603C1196.51 164.799 1188.67 166.397 1181.7 166.397ZM1181.7 142.864C1186.2 142.864 1191.07 141.847 1196.3 139.813C1201.09 137.924 1205.09 135.164 1208.28 131.533C1211.91 128.337 1214.67 124.342 1216.56 119.548C1218.6 115.045 1219.61 110.106 1219.61 104.731C1219.61 100.227 1218.6 95.361 1216.56 90.1313C1214.67 85.3375 1211.91 81.3426 1208.28 78.1467C1205.09 74.5151 1201.09 71.755 1196.3 69.8665C1191.79 67.8327 1186.93 66.8159 1181.7 66.8159C1177.05 66.8159 1172.11 67.8327 1166.88 69.8665C1162.09 71.755 1158.09 74.5151 1154.9 78.1467C1151.26 81.3426 1148.5 85.3375 1146.62 90.1313C1144.58 95.0704 1143.56 99.9369 1143.56 104.731C1143.56 109.379 1144.58 114.318 1146.62 119.548C1148.5 124.342 1151.26 128.337 1154.9 131.533C1158.09 135.164 1162.09 137.924 1166.88 139.813C1171.82 141.847 1176.76 142.864 1181.7 142.864ZM1325.95 165.961C1322.75 166.252 1320.28 166.397 1318.54 166.397C1309.39 166.397 1300.53 164.436 1291.96 160.514C1286.73 158.044 1281.86 154.921 1277.36 151.144C1272.85 147.222 1269.08 142.864 1266.03 138.07C1262.83 133.276 1260.36 127.974 1258.62 122.163C1257.02 116.207 1256.22 110.178 1256.22 104.077C1256.22 98.8474 1257.02 93.4725 1258.62 87.9523C1260.36 82.2869 1262.68 76.9846 1265.59 72.0455C1271.69 62.3126 1280.19 54.7586 1291.08 49.3837C1299.07 45.3162 1308.08 43.2825 1318.1 43.2825C1321.3 43.2825 1323.7 43.3551 1325.29 43.5004C1330.96 44.0815 1336.48 45.6068 1341.86 48.0763C1347.23 50.4006 1352.17 53.3786 1356.67 57.0103L1366.26 64.6368L1350.79 82.2869L1341.86 75.314C1338.08 72.5539 1334.45 70.5202 1330.96 69.2128C1327.62 67.7601 1323.84 67.0338 1319.63 67.0338C1316.58 67.0338 1313.53 67.5422 1310.48 68.5591C1304.38 69.8665 1299 72.6266 1294.35 76.8393C1288.98 80.9068 1285.2 86.4996 1283.02 93.6178C1281.86 97.54 1281.28 101.244 1281.28 104.731C1281.28 107.346 1281.64 110.469 1282.37 114.101C1284.26 120.928 1287.74 126.739 1292.83 131.533C1297.04 135.6 1302.27 138.723 1308.52 140.902C1311.42 141.919 1314.54 142.428 1317.89 142.428C1322.97 142.428 1327.47 141.774 1331.4 140.467C1335.32 139.014 1339.02 136.762 1342.51 133.712L1351.66 126.739L1366.04 143.953L1357.54 151.798C1348.25 159.642 1337.71 164.363 1325.95 165.961ZM1441.01 164.654C1436.5 165.671 1431.64 166.179 1426.41 166.179C1415.66 166.179 1405.56 163.564 1396.12 158.335C1386.68 152.96 1379.12 145.696 1373.46 136.544C1367.79 127.247 1364.96 117.006 1364.96 105.82C1364.96 99.1379 1366.05 92.4556 1368.23 85.7733C1372.29 72.8445 1379.78 62.5305 1390.67 54.8313C1401.57 46.9868 1413.62 43.0646 1426.84 43.0646C1430.33 43.0646 1433.52 43.3551 1436.43 43.9362C1446.16 45.3889 1454.95 49.0932 1462.8 55.0492C1470.79 60.8599 1477.03 68.1959 1481.54 77.0572C1486.04 85.7733 1488.29 94.9978 1488.29 104.731V116.497H1390.67C1393.72 124.778 1398.51 131.242 1405.05 135.891C1411.59 140.539 1418.85 142.864 1426.84 142.864C1430.18 142.864 1433.09 142.573 1435.56 141.992C1440.64 140.685 1444.93 138.723 1448.41 136.109C1452.05 133.494 1455.82 129.572 1459.74 124.342L1478.7 138.07C1473.33 145.478 1467.59 151.289 1461.49 155.502C1455.53 159.569 1448.7 162.62 1441.01 164.654ZM1462.8 92.9641C1460.62 86.5723 1456.91 81.0521 1451.68 76.4035C1446.6 71.755 1440.28 68.7043 1432.73 67.2517C1431.13 66.9611 1428.95 66.8159 1426.19 66.8159C1418.05 66.8159 1410.79 69.2128 1404.4 74.0066C1398.15 78.6552 1393.58 84.9743 1390.67 92.9641H1462.8Z" fill="#0B0E13" style="fill:#0B0E13;fill:color(display-p3 0.0431 0.0549 0.0745);fill-opacity:1;"/>
</svg>
